<?xml version="1.0" standalone="no"?>
<!DOCTYPE svg PUBLIC "-//W3C//DTD SVG 20010904//EN"
 "http://www.w3.org/TR/2001/REC-SVG-20010904/DTD/svg10.dtd">
<svg version="1.0" xmlns="http://www.w3.org/2000/svg"
 width="512.000000pt" height="512.000000pt" viewBox="0 0 512.000000 512.000000"
 preserveAspectRatio="xMidYMid meet">

<g transform="translate(0.000000,512.000000) scale(0.100000,-0.100000)"
fill="#000000" stroke="none">
<path d="M1887 5025 c-349 -66 -649 -292 -807 -605 -74 -149 -106 -278 -119
-491 -18 -280 -51 -395 -202 -717 -115 -245 -143 -314 -169 -426 -108 -450
115 -975 498 -1175 103 -53 205 -80 330 -88 l102 -6 0 -239 c0 -208 -2 -238
-15 -238 -9 0 -27 -11 -40 -25 l-25 -24 0 -456 0 -455 960 0 960 0 0 120 0
120 308 1 c186 1 289 4 260 9 -370 63 -526 320 -302 497 98 77 230 119 415
132 134 10 196 28 282 83 58 37 135 122 171 188 85 156 87 401 4 570 -55 112
-187 227 -303 262 -16 5 -67 13 -113 18 -144 15 -239 77 -289 187 -59 129 -42
211 87 408 141 216 185 327 197 497 8 117 -7 183 -82 368 -109 269 -138 383
-154 620 -16 217 -76 368 -200 502 -125 135 -264 206 -426 215 -101 6 -154 -5
-209 -42 -20 -14 -41 -25 -46 -25 -6 0 -31 16 -57 36 -161 123 -395 182 -743
190 -145 3 -215 0 -273 -11z m1608 -890 c22 -21 25 -33 25 -95 0 -62 -3 -74
-25 -95 -15 -16 -36 -25 -55 -25 -19 0 -40 9 -55 25 -22 21 -25 33 -25 95 0
62 3 74 25 95 15 16 36 25 55 25 19 0 40 -9 55 -25z m-1680 -80 c22 -21 25
-33 25 -95 0 -62 -3 -74 -25 -95 -15 -16 -36 -25 -55 -25 -19 0 -40 9 -55 25
-22 21 -25 33 -25 95 0 62 3 74 25 95 15 16 36 25 55 25 19 0 40 -9 55 -25z
m-278 -118 c73 -73 82 -109 38 -152 -43 -44 -79 -35 -152 38 -73 73 -82 109
-38 152 43 44 79 35 152 -38z m1393 -122 c0 -34 65 -216 106 -295 76 -149 183
-260 280 -293 l39 -14 3 -257 c3 -290 -9 -377 -67 -518 -120 -287 -384 -515
-664 -571 l-62 -13 -3 -94 c-3 -108 13 -167 55 -200 24 -18 25 -24 22 -99 -4
-85 -18 -114 -72 -155 -22 -16 -50 -21 -145 -27 -138 -9 -197 -25 -278 -77
-54 -35 -154 -135 -154 -154 0 -12 -76 -9 -103 3 -42 19 -47 47 -47 264 l0
205 133 0 c151 0 197 14 238 71 22 31 24 44 24 148 l0 115 -68 17 c-350 88
-615 358 -704 715 -13 53 -17 115 -17 264 -1 191 0 196 26 252 51 110 163 205
314 268 107 44 185 59 369 70 195 11 286 33 420 100 117 58 208 129 285 223
56 68 70 78 70 52z m-1435 -160 c16 -15 25 -36 25 -55 0 -19 -9 -40 -25 -55
-21 -22 -33 -25 -95 -25 -62 0 -74 3 -95 25 -16 15 -25 36 -25 55 0 19 9 40
25 55 21 22 33 25 95 25 62 0 74 -3 95 -25z"/>
<path d="M1855 3106 c-57 -25 -95 -85 -95 -147 0 -40 39 -79 80 -79 19 0 40 9
55 25 l25 24 25 -24 c58 -59 148 1 131 87 -19 96 -131 154 -221 114z"/>
<path d="M2812 3103 c-97 -47 -122 -188 -39 -216 35 -11 84 7 92 34 8 25 18
24 30 -3 23 -51 112 -43 135 13 46 111 -103 229 -218 172z"/>
<path d="M2023 2614 c-23 -23 -25 -31 -20 -80 19 -186 234 -320 461 -287 181
26 314 139 331 285 7 55 -11 90 -51 101 -55 16 -87 -8 -103 -75 -10 -45 -22
-65 -52 -92 -113 -103 -352 -78 -413 43 -7 14 -16 43 -20 63 -12 68 -84 91
-133 42z"/>
</g>
</svg>
